:FULLY-SPECIFIED
:FORCE-ALL-JOINTS-BE-3DOF
:DEGREES
1053
root 1.20461 15.1591 32.5488 4.88982 -3.38272 3.4316
lfemur 8.81629 0.44918 5.68315
ltibia 0 0 0
lfoot -30.4072 -11.1611 -2.36149e-05
ltoes -34.2595 0 0
rfemur -31.0008 -15.6852 -6.30274
rtibia 49.9877 -0 0
rfoot -21.8714 5.43768 -6.88917e-05
rtoes -40.9439 0 0
lowerback -1.84413 -0.050142 -0.246556
upperback -0.475032 -0.0280609 -6.03172
thorax 0.543733 -0.0152654 -6.11352
lowerneck -7.05499 0.716062 6.50241
upperneck 1.32629 0.26609 3.70366
head 1.61493 0.262146 0.0731612
lclavicle 0 0 0
lhumerus -58.7042 -46.9372 115.415
lradius 55.8219 -0 0
lwrist 0 0 0
lhand 37.4439 25.2861 -7.45552e-07
lfingers 0 0 0
lthumb 60.2445 38.807 -1.76441e-05
rclavicle 0 0 0
rhumerus 2.10202 -23.5582 0.647502
rradius 27.4742 -0 0
rwrist -9.68162 0 0
rhand -30.552 -42.0497 8.29395e-05
rfingers 0 0 0
rthumb -3.85051 -71.9945 7.97814e-05
1054
root 1.20521 15.1594 32.5514 4.89151 -3.36716 3.41503
lfemur 8.82767 0.436922 5.69312
ltibia 0 0 0
lfoot -30.4159 -11.1439 -1.61826e-05
ltoes -34.284 0 0
rfemur -30.9595 -15.6484 -6.3024
rtibia 49.9696 -0 0
rfoot -21.8591 5.40211 -4.72093e-05
rtoes -40.9237 0 0
lowerback -1.8608 -0.0519631 -0.253337
upperback -0.474429 -0.0297204 -6.026
thorax 0.553555 -0.0159613 -6.10364
lowerneck -7.06656 0.703727 6.49483
upperneck 1.34464 0.247916 3.71628
head 1.62265 0.254132 0.0778146
lclavicle 0 0 0
lhumerus -58.7037 -46.9465 115.425
lradius 55.8209 -0 0
lwrist 0 0 0
lhand 37.4556 25.2857 -5.10903e-07
lfingers 0 0 0
lthumb 60.2545 38.7958 -1.20909e-05
rclavicle 0 0 0
rhumerus 2.06664 -23.5224 0.661999
rradius 27.4757 -0 0
rwrist -9.6557 0 0
rhand -30.5404 -42.0044 5.68358e-05
rfingers 0 0 0
rthumb -3.83933 -71.9493 5.46717e-05
1055
root 1.20563 15.1597 32.5533 4.89285 -3.35477 3.40185
lfemur 8.83672 0.427167 5.70106
ltibia 0 0 0
lfoot -30.4229 -11.1303 -8.40426e-06
ltoes -34.3034 0 0
rfemur -30.9267 -15.6191 -6.30211
rtibia 49.9552 -0 0
rfoot -21.8494 5.37381 -2.45177e-05
rtoes -40.9077 0 0
lowerback -1.87406 -0.0534134 -0.258732
upperback -0.47395 -0.0310409 -6.02146
thorax 0.561369 -0.0165162 -6.09579
lowerneck -7.07577 0.693912 6.4888
upperneck 1.35923 0.233453 3.72632
head 1.6288 0.247755 0.0815161
lclavicle 0 0 0
lhumerus -58.7033 -46.9539 115.433
lradius 55.8201 -0 0
lwrist 0 0 0
lhand 37.465 25.2854 -2.65333e-07
lfingers 0 0 0
lthumb 60.2625 38.787 -6.27932e-06
rclavicle 0 0 0
rhumerus 2.0385 -23.494 0.673513
rradius 27.4768 -0 0
rwrist -9.63508 0 0
rhand -30.5312 -41.9683 2.95172e-05
rfingers 0 0 0
rthumb -3.83043 -71.9133 2.83932e-05
1056
root 1.20588 15.1599 32.5545 4.89373 -3.34659 3.39314
lfemur 8.8427 0.420723 5.7063
ltibia 0 0 0
lfoot -30.4274 -11.1213 -2.3599e-06
ltoes -34.3163 0 0
rfemur -30.905 -15.5998 -6.3019
rtibia 49.9457 -0 0
rfoot -21.8429 5.35512 -6.88454e-06
rtoes -40.897 0 0
lowerback -1.88283 -0.0543721 -0.262295
upperback -0.473633 -0.0319131 -6.01845
thorax 0.56653 -0.0168833 -6.09059
lowerneck -7.08184 0.687428 6.48482
upperneck 1.36887 0.223899 3.73295
head 1.63285 0.243543 0.0839608
lclavicle 0 0 0
lhumerus -58.7031 -46.9587 115.438
lradius 55.8195 -0 0
lwrist 0 0 0
lhand 37.4712 25.2852 -7.45051e-08
lfingers 0 0 0
lthumb 60.2678 38.7811 -1.76322e-06
rclavicle 0 0 0
rhumerus 2.01993 -23.4752 0.681109
rradius 27.4776 -0 0
rwrist -9.62146 0 0
rhand -30.5251 -41.9444 8.28837e-06
rfingers 0 0 0
rthumb -3.82455 -71.8896 7.97277e-06
